<?xml version="1.0" standalone="no"?>
<!DOCTYPE svg PUBLIC "-//W3C//DTD SVG 1.1//EN" "http://www.w3.org/Graphics/SVG/1.1/DTD/svg11.dtd">
<!--Generator: Xara Designer (www.xara.com), SVG filter version: 6.6.0.0-->
<svg fill="none" fill-rule="evenodd" stroke="black" stroke-width="0.501" stroke-linejoin="bevel" stroke-miterlimit="10" font-family="Times New Roman" font-size="16" style="font-variant-ligatures:none" xmlns:xlink="http://www.w3.org/1999/xlink" xmlns="http://www.w3.org/2000/svg" version="1.1" overflow="visible" width="302.765pt" height="53.051pt" viewBox="935.669 -522.028 302.765 53.051">
 <defs>
	</defs>
 <g id="Layer 1" transform="scale(1 -1)">
  <g id="Group" fill="#724d35" fill-rule="nonzero" stroke-linejoin="round" stroke-linecap="round" stroke="none" stroke-width="1.049">
   <g id="Group_1">
    <path d="M 960.819,501.558 C 960.83,499.583 960.666,497.905 960.324,496.522 C 959.981,495.139 959.387,494.085 958.539,493.36 C 957.692,492.634 956.517,492.268 955.013,492.262 L 955.013,510.133 C 956.517,510.137 957.692,509.833 958.539,509.223 C 959.387,508.613 959.981,507.675 960.324,506.408 C 960.666,505.141 960.83,503.524 960.819,501.558 Z M 935.879,515.831 L 935.879,511.874 L 939.033,511.011 L 939.033,474.872 L 935.669,474.009 L 935.669,470.051 L 961.099,470.051 L 961.099,474.009 L 955.013,474.872 L 955.013,486.21 C 958.081,485.932 960.962,486.032 963.656,486.51 C 966.35,486.989 968.729,487.891 970.79,489.217 C 972.853,490.543 974.47,492.337 975.642,494.6 C 976.813,496.863 977.408,499.638 977.431,502.927 C 977.409,507.374 975.961,510.642 973.085,512.73 C 970.208,514.817 966.026,515.851 960.538,515.831 L 935.879,515.831 Z" marker-start="none" marker-end="none"/>
    <path d="M 986.728,469.187 C 988.796,469.191 990.587,469.479 992.103,470.052 C 993.62,470.625 994.794,471.458 995.625,472.551 C 996.456,473.645 996.876,474.975 996.887,476.541 L 997.518,476.541 C 997.545,474.064 998.25,472.241 999.633,471.07 C 1001.02,469.901 1002.93,469.321 1005.37,469.331 C 1007,469.341 1008.44,469.601 1009.69,470.113 C 1010.95,470.625 1012.03,471.329 1012.96,472.226 C 1013.88,473.122 1014.67,474.153 1015.32,475.315 L 1013.01,477.479 C 1012.44,477.033 1011.93,476.762 1011.48,476.664 C 1011.03,476.566 1010.67,476.716 1010.4,477.116 C 1010.14,477.514 1010,478.236 1010,479.283 L 1010,489.877 C 1010.01,491.564 1009.82,493.146 1009.41,494.622 C 1009,496.096 1008.27,497.395 1007.22,498.521 C 1006.16,499.646 1004.67,500.527 1002.75,501.164 C 1000.83,501.8 998.36,502.125 995.348,502.136 C 993.259,502.128 991.2,501.952 989.171,501.607 C 987.141,501.263 985.201,500.797 983.35,500.212 C 981.5,499.626 979.798,498.97 978.246,498.241 L 980.699,489.372 L 989.743,489.372 L 990.304,496.87 C 992.08,497.39 993.379,497.306 994.2,496.618 C 995.022,495.93 995.428,494.549 995.417,492.473 L 995.417,488.004 C 991.442,488.013 988.102,487.665 985.398,486.961 C 982.694,486.255 980.652,485.134 979.271,483.595 C 977.891,482.057 977.199,480.043 977.194,477.551 C 977.204,475.836 977.598,474.355 978.373,473.107 C 979.15,471.859 980.249,470.896 981.671,470.217 C 983.093,469.539 984.779,469.196 986.728,469.187 Z M 993.877,475.452 C 993.378,475.423 992.976,475.662 992.669,476.165 C 992.363,476.67 992.205,477.611 992.197,478.99 C 992.169,481 992.382,482.468 992.835,483.394 C 993.29,484.321 994.151,484.779 995.417,484.766 L 995.417,478.99 C 995.406,477.611 995.255,476.67 994.963,476.165 C 994.67,475.662 994.308,475.423 993.877,475.452 Z" marker-start="none" marker-end="none"/>
    <path d="M 1015.08,470.051 L 1034.49,470.051 L 1034.49,473.217 L 1032.74,474.227 L 1032.74,479.995 C 1032.72,483.406 1032.77,486.088 1032.88,488.039 C 1032.99,489.989 1033.22,491.367 1033.6,492.171 C 1033.97,492.976 1034.55,493.365 1035.33,493.339 C 1035.97,493.345 1036.44,493.125 1036.74,492.676 C 1037.04,492.228 1037.24,491.515 1037.32,490.54 C 1037.4,489.563 1037.44,488.285 1037.43,486.704 L 1037.43,474.227 L 1035.75,473.217 L 1035.75,470.051 L 1054.95,470.051 L 1054.95,473.217 L 1052.5,474.227 L 1052.5,491.391 C 1052.49,493.924 1052.09,495.946 1051.29,497.46 C 1050.49,498.972 1049.34,500.059 1047.85,500.723 C 1046.35,501.387 1044.56,501.712 1042.47,501.697 C 1040.45,501.706 1038.64,501.37 1037.05,500.689 C 1035.47,500.008 1034.22,498.935 1033.3,497.47 C 1032.39,496.005 1031.92,494.099 1031.9,491.753 L 1031.27,491.753 L 1031.26,497.087 C 1031.27,497.936 1031.17,498.69 1030.97,499.35 C 1030.76,500.009 1030.39,500.529 1029.85,500.907 C 1029.31,501.286 1028.54,501.478 1027.55,501.486 C 1027.23,501.484 1026.66,501.443 1025.83,501.362 C 1025,501.282 1024.04,501.178 1022.95,501.048 C 1021.85,500.919 1020.75,500.779 1019.63,500.63 C 1018.52,500.48 1017.53,500.334 1016.65,500.194 C 1015.77,500.053 1015.13,499.931 1014.73,499.828 L 1014.73,495.933 L 1017.67,495.933 L 1017.67,474.227 L 1015.08,473.217 L 1015.08,470.051 Z" marker-start="none" marker-end="none"/>
    <path d="M 1073.41,496.727 C 1073.42,497.694 1073.32,498.533 1073.11,499.243 C 1072.91,499.954 1072.54,500.504 1071.99,500.893 C 1071.45,501.284 1070.69,501.481 1069.69,501.486 C 1069.37,501.484 1068.75,501.443 1067.82,501.362 C 1066.89,501.282 1065.81,501.178 1064.57,501.048 C 1063.33,500.919 1062.08,500.779 1060.82,500.63 C 1059.56,500.48 1058.44,500.334 1057.46,500.194 C 1056.49,500.053 1055.8,499.931 1055.39,499.828 L 1055.39,496.155 L 1058.34,496.155 L 1058.34,474.227 L 1055.74,473.217 L 1055.74,470.051 L 1076,470.051 L 1076,473.217 L 1073.41,474.227 L 1073.41,496.727 Z M 1057.43,514.39 C 1057.44,512.708 1057.81,511.3 1058.52,510.168 C 1059.23,509.035 1060.19,508.183 1061.4,507.611 C 1062.61,507.039 1063.97,506.752 1065.49,506.751 C 1067,506.752 1068.36,507.039 1069.59,507.611 C 1070.81,508.183 1071.78,509.035 1072.5,510.168 C 1073.23,511.3 1073.6,512.708 1073.61,514.39 C 1073.6,516.072 1073.23,517.479 1072.5,518.613 C 1071.78,519.744 1070.81,520.596 1069.59,521.169 C 1068.36,521.741 1067,522.027 1065.49,522.028 C 1063.97,522.027 1062.61,521.741 1061.4,521.169 C 1060.19,520.596 1059.23,519.744 1058.52,518.613 C 1057.81,517.479 1057.44,516.072 1057.43,514.39 Z" marker-start="none" marker-end="none"/>
    <path d="M 1094.81,500.694 C 1094.81,503.525 1094.89,505.85 1095.04,507.671 C 1095.18,509.492 1095.41,510.908 1095.71,511.918 C 1096.02,512.929 1096.4,513.633 1096.85,514.03 C 1097.31,514.428 1097.84,514.618 1098.46,514.602 L 1101.54,506.316 L 1107.71,506.316 L 1108.55,518.636 C 1106.96,519.07 1105.35,519.407 1103.7,519.644 C 1102.06,519.881 1100.43,520.001 1098.81,520.004 C 1096.24,520.015 1093.8,519.681 1091.49,519.003 C 1089.18,518.324 1087.12,517.233 1085.33,515.727 C 1083.54,514.22 1082.14,512.232 1081.14,509.761 C 1080.14,507.29 1079.67,504.268 1079.74,500.694 L 1077.15,499.399 L 1077.15,495.009 L 1079.74,495.009 L 1079.74,474.228 L 1077.15,473.217 L 1077.15,470.051 L 1097.4,470.051 L 1097.4,473.217 L 1094.81,474.228 L 1094.81,495.081 L 1098.11,495.081 L 1098.11,500.694 L 1094.81,500.694 Z" marker-start="none" marker-end="none"/>
    <path d="M 1119.01,487.933 L 1125.88,487.933 L 1127.36,500.406 C 1125.46,501.045 1123.63,501.496 1121.85,501.757 C 1120.08,502.019 1118.39,502.145 1116.77,502.136 C 1114.59,502.144 1112.42,501.849 1110.28,501.251 C 1108.13,500.653 1106.17,499.705 1104.39,498.405 C 1102.61,497.106 1101.19,495.41 1100.12,493.316 C 1099.05,491.222 1098.5,488.682 1098.47,485.698 C 1098.49,482.042 1099.16,478.974 1100.49,476.494 C 1101.82,474.013 1103.71,472.142 1106.18,470.878 C 1108.65,469.614 1111.59,468.98 1115.02,468.977 C 1116.76,468.986 1118.44,469.288 1120.07,469.882 C 1121.7,470.475 1123.22,471.306 1124.61,472.372 C 1126.01,473.439 1127.23,474.684 1128.27,476.11 L 1126.72,479.282 C 1125.74,478.918 1124.78,478.636 1123.85,478.434 C 1122.92,478.233 1122.03,478.131 1121.19,478.128 C 1119.64,478.126 1118.28,478.466 1117.13,479.151 C 1115.98,479.834 1115.09,480.876 1114.45,482.273 C 1113.81,483.67 1113.49,485.436 1113.48,487.573 C 1113.49,490.019 1113.71,491.88 1114.13,493.154 C 1114.55,494.427 1115.08,495.289 1115.72,495.738 C 1116.36,496.187 1117.01,496.397 1117.68,496.368 L 1119.01,487.933 Z" marker-start="none" marker-end="none"/>
    <path d="M 1146.37,468.978 C 1148.82,468.973 1151.15,469.298 1153.36,469.952 C 1155.56,470.605 1157.52,471.614 1159.24,472.98 C 1160.95,474.345 1162.3,476.093 1163.29,478.224 C 1164.27,480.356 1164.78,482.898 1164.8,485.849 C 1164.78,488.816 1164.34,491.351 1163.47,493.456 C 1162.59,495.56 1161.36,497.273 1159.78,498.594 C 1158.19,499.916 1156.33,500.885 1154.18,501.503 C 1152.04,502.121 1149.69,502.426 1147.14,502.419 C 1144.62,502.423 1142.25,502.092 1140.03,501.426 C 1137.82,500.76 1135.86,499.739 1134.17,498.36 C 1132.47,496.982 1131.14,495.225 1130.18,493.091 C 1129.21,490.957 1128.73,488.422 1128.71,485.488 C 1128.72,482.521 1129.18,479.989 1130.09,477.89 C 1130.99,475.792 1132.25,474.085 1133.86,472.773 C 1135.47,471.459 1137.34,470.497 1139.47,469.885 C 1141.6,469.274 1143.9,468.971 1146.37,468.978 Z M 1146.93,473.304 C 1146.02,473.293 1145.32,474.306 1144.84,476.342 C 1144.37,478.376 1144.13,481.498 1144.12,485.704 C 1144.12,489.857 1144.33,492.996 1144.76,495.121 C 1145.18,497.246 1145.81,498.313 1146.65,498.321 C 1147.46,498.313 1148.1,497.246 1148.55,495.121 C 1149.01,492.996 1149.24,489.857 1149.24,485.704 C 1149.25,481.498 1149.06,478.376 1148.69,476.342 C 1148.32,474.306 1147.73,473.293 1146.93,473.304 Z" marker-start="none" marker-end="none"/>
    <path d="M 1201.93,491.753 C 1201.93,494.053 1201.66,495.937 1201.09,497.405 C 1200.53,498.873 1199.62,499.957 1198.36,500.657 C 1197.11,501.356 1195.44,501.703 1193.37,501.697 C 1191.35,501.706 1189.54,501.37 1187.95,500.689 C 1186.37,500.008 1185.12,498.935 1184.2,497.47 C 1183.28,496.005 1182.82,494.099 1182.8,491.753 L 1182.17,491.753 L 1182.16,497.087 C 1182.17,497.936 1182.07,498.69 1181.87,499.35 C 1181.66,500.009 1181.29,500.529 1180.75,500.907 C 1180.21,501.286 1179.44,501.478 1178.44,501.486 C 1178.13,501.484 1177.56,501.443 1176.73,501.362 C 1175.9,501.282 1174.94,501.178 1173.84,501.048 C 1172.75,500.919 1171.65,500.779 1170.53,500.63 C 1169.42,500.48 1168.42,500.334 1167.54,500.194 C 1166.66,500.053 1166.02,499.931 1165.62,499.828 L 1165.62,495.933 L 1168.57,495.933 L 1168.57,474.227 L 1165.97,473.217 L 1165.97,470.051 L 1185.39,470.051 L 1185.39,473.217 L 1183.63,474.227 L 1183.63,479.997 C 1183.62,483.408 1183.67,486.089 1183.78,488.04 C 1183.88,489.989 1184.12,491.367 1184.5,492.171 C 1184.87,492.976 1185.44,493.365 1186.23,493.339 C 1186.87,493.345 1187.34,493.125 1187.65,492.676 C 1187.95,492.228 1188.14,491.515 1188.22,490.54 C 1188.31,489.563 1188.34,488.285 1188.33,486.704 L 1188.33,474.227 L 1186.65,473.217 L 1186.65,470.051 L 1205.15,470.051 L 1205.15,473.217 L 1203.4,474.227 L 1203.4,479.997 C 1203.39,483.408 1203.43,486.089 1203.54,488.04 C 1203.65,489.989 1203.89,491.367 1204.26,492.171 C 1204.63,492.976 1205.21,493.365 1205.99,493.339 C 1206.63,493.345 1207.11,493.125 1207.41,492.676 C 1207.71,492.228 1207.9,491.515 1207.98,490.54 C 1208.07,489.563 1208.1,488.285 1208.09,486.704 L 1208.09,474.227 L 1206.41,473.217 L 1206.41,470.051 L 1225.62,470.051 L 1225.62,473.217 L 1223.16,474.227 L 1223.16,491.391 C 1223.15,493.924 1222.75,495.946 1221.95,497.46 C 1221.15,498.972 1220,500.059 1218.51,500.723 C 1217.02,501.387 1215.23,501.712 1213.14,501.697 C 1211.11,501.706 1209.3,501.37 1207.72,500.689 C 1206.13,500.008 1204.88,498.935 1203.96,497.47 C 1203.05,496.005 1202.58,494.099 1202.56,491.753 L 1201.93,491.753 Z" marker-start="none" marker-end="none"/>
   </g>
  </g>
  <path d="M 1232.67,507.454 C 1232.67,507.903 1232.52,508.214 1232.21,508.381 C 1232.05,508.474 1231.75,508.521 1231.32,508.521 L 1230.37,508.521 L 1230.37,506.363 L 1231.61,506.363 C 1231.95,506.363 1232.21,506.457 1232.4,506.647 C 1232.58,506.836 1232.67,507.105 1232.67,507.454 Z M 1233.07,505.264 L 1234.65,502.4 C 1234.69,502.313 1234.69,502.234 1234.64,502.162 C 1234.6,502.08 1234.53,502.039 1234.43,502.039 L 1233.27,502.039 C 1233.16,502.039 1233.09,502.081 1233.05,502.17 L 1231.56,504.972 L 1230.37,504.972 L 1230.37,502.286 C 1230.37,502.214 1230.35,502.154 1230.3,502.108 C 1230.26,502.063 1230.2,502.039 1230.13,502.039 L 1229.1,502.039 C 1229.02,502.039 1228.96,502.063 1228.92,502.108 C 1228.87,502.154 1228.85,502.214 1228.85,502.286 L 1228.85,509.656 C 1228.85,509.727 1228.87,509.787 1228.92,509.834 C 1228.96,509.878 1229.02,509.901 1229.1,509.901 L 1231.35,509.901 C 1232.01,509.901 1232.5,509.839 1232.81,509.717 C 1233.25,509.559 1233.59,509.281 1233.84,508.881 C 1234.09,508.48 1234.22,508.021 1234.22,507.499 C 1234.22,507.027 1234.11,506.603 1233.89,506.229 C 1233.67,505.851 1233.38,505.571 1233.01,505.387 C 1233.04,505.335 1233.06,505.294 1233.07,505.264 Z M 1233.75,511.173 C 1233.05,511.473 1232.32,511.621 1231.55,511.621 C 1230.79,511.621 1230.05,511.473 1229.36,511.173 C 1228.66,510.874 1228.06,510.472 1227.56,509.967 C 1227.05,509.463 1226.65,508.863 1226.35,508.167 C 1226.05,507.47 1225.9,506.739 1225.9,505.97 C 1225.9,505.202 1226.05,504.47 1226.35,503.774 C 1226.65,503.078 1227.05,502.477 1227.56,501.974 C 1228.06,501.469 1228.66,501.066 1229.36,500.768 C 1230.05,500.469 1230.79,500.32 1231.55,500.32 C 1232.32,500.32 1233.05,500.469 1233.75,500.768 C 1234.45,501.066 1235.05,501.469 1235.55,501.974 C 1236.06,502.477 1236.46,503.078 1236.76,503.774 C 1237.06,504.47 1237.2,505.202 1237.2,505.97 C 1237.2,506.739 1237.06,507.47 1236.76,508.167 C 1236.46,508.863 1236.06,509.463 1235.55,509.967 C 1235.05,510.472 1234.45,510.874 1233.75,511.173 Z M 1237.89,508.643 C 1238.25,507.794 1238.43,506.903 1238.43,505.97 C 1238.43,505.038 1238.25,504.147 1237.89,503.298 C 1237.53,502.449 1237.04,501.716 1236.42,501.102 C 1235.81,500.488 1235.08,499.998 1234.23,499.634 C 1233.38,499.271 1232.49,499.09 1231.55,499.09 C 1230.62,499.09 1229.73,499.271 1228.88,499.634 C 1228.03,499.998 1227.3,500.488 1226.68,501.102 C 1226.07,501.716 1225.58,502.449 1225.22,503.298 C 1224.85,504.147 1224.67,505.038 1224.67,505.97 C 1224.67,506.903 1224.85,507.794 1225.22,508.643 C 1225.58,509.492 1226.07,510.225 1226.68,510.839 C 1227.3,511.453 1228.03,511.943 1228.88,512.307 C 1229.73,512.67 1230.62,512.851 1231.55,512.851 C 1232.49,512.851 1233.38,512.67 1234.23,512.307 C 1235.08,511.943 1235.81,511.453 1236.42,510.839 C 1237.04,510.225 1237.53,509.492 1237.89,508.643 Z" fill="#724d35" stroke="none" stroke-width="0.243" fill-rule="nonzero" stroke-linejoin="round" stroke-linecap="round" marker-start="none" marker-end="none"/>
 </g>
</svg>
